<svg id="e5TPIQqsvp91" xmlns="http://www.w3.org/2000/svg" xmlns:xlink="http://www.w3.org/1999/xlink" viewBox="0 0 1920 1080" shape-rendering="geometricPrecision" text-rendering="geometricPrecision" project-id="10f59693cd3d448295c7571cf2130645" export-id="94e29c7b114d48db849299199b75a655" cached="false"><rect width="46" height="46" rx="0" ry="0" transform="matrix(41.739131 0 0 23.478261-.000013-.000003)" fill="#dfdfdf"/><rect width="45.021421" height="46.90563" rx="11" ry="11" transform="matrix(13.904145 0 0 12.103359 648.899006 246.377439)" fill="rgba(113,113,113,0.22)"/><rect width="46" height="46" rx="0" ry="0" transform="matrix(12.276089 0 0 3.431156 677.649953 316.851474)"/><rect width="46" height="46" rx="0" ry="0" transform="matrix(12.276089 0 0 1.498518 677.649953 503.066546)"/><g transform="matrix(31.488339 0 0 15.17092 645.11661 530.204161)"><rect width="20" height="20" rx="0" ry="0" fill="none"/><g><path d="M17,5L3,5C1.9,5,1,5.9,1,7v6c0,1.1.9,2,2,2h14c1.1,0,2-.9,2-2v-6c0-1.1-.9-2-2-2Zm1,7c0,.6-.4,1-1,1h-14c-.6,0-1-.4-1-1v-5c0-.6.4-1,1-1h14c.6,0,1,.4,1,1v5Z"/></g></g></svg>
